<svg width="679" height="515" viewBox="0 0 679 515" fill="none" xmlns="http://www.w3.org/2000/svg">
<g clip-path="url(#clip0_114_228)">
<mask id="mask0_114_228" style="mask-type:luminance" maskUnits="userSpaceOnUse" x="11" y="19" width="669" height="497">
<path d="M11 19.7969H679.427V515.359H11V19.7969Z" fill="white"/>
</mask>
<g mask="url(#mask0_114_228)">
<path d="M679.427 44.6876V491.599C679.255 510.932 673.682 515.417 664.365 515.417H26.8073C18.4896 515.417 11.75 504.75 11.75 491.599V44.6876C11.75 31.5365 18.4896 20.8699 26.8073 20.8699H664.365C672.688 20.8699 679.427 31.5365 679.427 44.6876Z" fill="#5F3B28"/>
</g>
<path d="M670.854 27.9584V482.615C670.682 502.281 665.109 506.849 655.797 506.849H18.2344C9.91665 506.849 3.17706 496 3.17706 482.615V27.9584C3.17706 14.573 9.91665 3.72925 18.2344 3.72925H655.797C664.115 3.72925 670.854 14.573 670.854 27.9584Z" fill="#F6EEE1"/>
<mask id="mask1_114_228" style="mask-type:luminance" maskUnits="userSpaceOnUse" x="-1" y="0" width="681" height="516">
<path d="M-0.4375 0.114624H679.427V515.359H-0.4375V0.114624Z" fill="white"/>
</mask>
<g mask="url(#mask1_114_228)">
<path d="M670.853 27.9591V482.615C670.681 502.281 665.109 506.849 655.796 506.849H18.2343C9.91664 506.849 3.17706 496 3.17706 482.615V27.9591C3.17706 14.5737 9.91664 3.72993 18.2343 3.72993H655.796C664.114 3.72993 670.853 14.5737 670.853 27.9591Z" stroke="#5F3B28" stroke-width="7.22551" stroke-miterlimit="10"/>
</g>
<path d="M670.854 15.0574V38.0105H3.17706V15.0574C3.17706 8.80216 9.91665 3.72925 18.2344 3.72925H655.797C664.115 3.72925 670.854 8.80216 670.854 15.0574Z" fill="#FBB620"/>
<mask id="mask2_114_228" style="mask-type:luminance" maskUnits="userSpaceOnUse" x="-1" y="0" width="681" height="100">
<path d="M-0.4375 0.114624H679.427V99.6667H-0.4375V0.114624Z" fill="white"/>
</mask>
<g mask="url(#mask2_114_228)">
<path d="M670.853 15.058V38.0111H3.17706V15.058C3.17706 8.80281 9.91664 3.72988 18.2343 3.72988H655.796C664.114 3.72988 670.853 8.80281 670.853 15.058Z" stroke="#5F3B28" stroke-width="4.28557" stroke-miterlimit="10"/>
</g>
<path d="M637.005 473.849V97.5781H667.427" fill="#F6EEE1"/>
<path d="M638.807 473.849H635.198V95.7761H667.427V99.3803H638.807V473.849Z" fill="#5F3B28"/>
<path d="M671.286 130.089H637.005V126.354H671.286V130.089Z" fill="#5F3B28"/>
<path d="M671.286 447.219H637.005V443.484H671.286V447.219Z" fill="#5F3B28"/>
<path d="M655.859 12.974L641.839 26.9948Z" fill="#FBB620"/>
<path d="M641.838 28.6303C641.417 28.6303 640.995 28.4688 640.677 28.1511C640.036 27.5105 640.036 26.4688 640.677 25.8282L654.698 11.8074C655.338 11.1667 656.38 11.1667 657.016 11.8074C657.661 12.448 657.661 13.4897 657.016 14.1303L642.995 28.1511C642.677 28.4688 642.26 28.6303 641.838 28.6303Z" fill="#5F3B28"/>
<path d="M655.859 26.9948L641.839 12.974Z" fill="#FBB620"/>
<path d="M655.859 28.6303C655.443 28.6303 655.016 28.4688 654.698 28.1511L640.677 14.1303C640.036 13.4897 640.036 12.448 640.677 11.8074C641.318 11.1667 642.354 11.1667 642.995 11.8074L657.016 25.8282C657.661 26.4688 657.661 27.5105 657.016 28.1511C656.698 28.4688 656.276 28.6303 655.859 28.6303Z" fill="#5F3B28"/>
<path d="M628.645 28.3704H613.645V13.3756H628.645V28.3704Z" stroke="#5F3B28" stroke-width="2.94571" stroke-miterlimit="10" stroke-linecap="round" stroke-linejoin="round"/>
<path d="M602.203 29.7917H582.557C581.651 29.7917 580.917 29.0625 580.917 28.1563C580.917 27.25 581.651 26.5156 582.557 26.5156H602.203C603.109 26.5156 603.844 27.25 603.844 28.1563C603.844 29.0625 603.109 29.7917 602.203 29.7917Z" fill="#5F3B28"/>
<path d="M655.214 260.646C645.745 260.646 638.073 252.969 638.073 243.5V199.792C638.073 190.323 645.745 182.646 655.214 182.646C664.682 182.646 672.354 190.323 672.354 199.792V243.5C672.354 252.969 664.682 260.646 655.214 260.646Z" fill="#FBB620"/>
<mask id="mask3_114_228" style="mask-type:luminance" maskUnits="userSpaceOnUse" x="577" y="121" width="103" height="202">
<path d="M577.401 121.026H679.427V322.073H577.401V121.026Z" fill="white"/>
</mask>
<g mask="url(#mask3_114_228)">
<path d="M655.213 260.646C645.744 260.646 638.072 252.969 638.072 243.5V199.792C638.072 190.323 645.744 182.646 655.213 182.646C664.681 182.646 672.353 190.323 672.353 199.792V243.5C672.353 252.969 664.681 260.646 655.213 260.646Z" stroke="#5F3B28" stroke-width="4.28557" stroke-miterlimit="10"/>
</g>
<path d="M664.099 117.724H646.573L655.188 104.953L664.099 117.724Z" fill="#5F3B28"/>
<path d="M662.385 454.995H644.859L653.474 467.771L662.385 454.995Z" fill="#5F3B28"/>
<path d="M637.005 99.3803H3.17706V95.7761H637.005V99.3803Z" fill="#5F3B28"/>
<path d="M637.005 83.4375H167.734V53.4427H637.005V83.4375Z" fill="#F6EEE1"/>
<path d="M637.005 83.438H167.734V53.4432H637.005V83.438Z" stroke="#5F3B28" stroke-width="3.53494" stroke-miterlimit="10"/>
<path d="M612.328 63.724H629.859L621.245 76.4948L612.328 63.724Z" fill="#5F3B28"/>
<path d="M605.286 53.4427L605.719 83.4375Z" fill="#F6EEE1"/>
<path d="M603.948 83.4584L603.521 53.4636L607.057 53.4167L607.484 83.4115L603.948 83.4584Z" fill="#5F3B28"/>
<path d="M670.854 475.849H3.17706V472.24H670.854V475.849Z" fill="#5F3B28"/>
<path d="M250.109 508.359H246.5V473.849H250.109V508.359Z" fill="#5F3B28"/>
<path d="M39.6406 63.3125L37.6562 68.1198H41.5937L39.6406 63.3125ZM36.6614 70.625L36.0833 72.0781H36.6614C37.3333 72.0781 37.5364 72.125 37.8125 72.3021C38.1354 72.5521 38.3125 72.9271 38.3125 73.3281C38.3125 73.7552 38.0885 74.1563 37.7135 74.4063C37.5104 74.5313 37.1875 74.5781 36.6614 74.5781H33.3333C32.2291 74.5781 31.6771 74.1771 31.6771 73.3281C31.6771 72.9063 31.901 72.4792 32.276 72.25C32.5 72.1042 32.7291 72.0781 33.3541 72.0781L37.2344 62.4896H35.6614C35.0052 62.4896 34.7604 62.4375 34.5052 62.2604C34.1823 62.0104 33.9791 61.6354 33.9791 61.2344C33.9791 60.8073 34.2031 60.4063 34.5833 60.1563C34.8073 60.0052 34.9844 59.9844 35.6614 59.9844H41.0677L46.0521 72.0781C46.7552 72.0781 46.9791 72.125 47.2552 72.3021C47.5781 72.5521 47.75 72.9271 47.75 73.3281C47.75 74.1771 47.2031 74.5781 46.0989 74.5781H42.6198C42.0208 74.5781 41.7187 74.5052 41.4635 74.3333C41.1666 74.1094 40.9687 73.7292 40.9687 73.3281C40.9687 72.9063 41.1875 72.4792 41.5677 72.25C41.7916 72.1042 41.9687 72.0781 42.6198 72.0781H43.1927L42.6198 70.625H36.6614Z" fill="#5F3B28"/>
<path d="M51.5417 66.7917C50.9167 67.4167 50.5625 68.25 50.5625 69.099C50.5625 69.9532 50.9167 70.7969 51.5417 71.4271C52.2448 72.125 53.0937 72.4271 54.2969 72.4271C55.4948 72.4271 56.3542 72.125 57.0521 71.4271C57.6771 70.7969 58.026 69.974 58.026 69.1511C58.026 68.25 57.6771 67.4167 57.0521 66.7917C56.3229 66.0886 55.526 65.7917 54.2708 65.7917C53.0677 65.7917 52.2448 66.0886 51.5417 66.7917ZM60.5313 72.0782H60.9323C61.6094 72.0782 61.8333 72.125 62.0833 72.3282C62.4115 72.5521 62.5885 72.9271 62.5885 73.3282C62.5885 73.7552 62.3594 74.1771 61.9844 74.4063C61.7865 74.5313 61.5104 74.5782 60.9323 74.5782H58.026V73.7084C56.6979 74.6094 55.75 74.9323 54.25 74.9323C52.3646 74.9323 50.9635 74.4063 49.7917 73.3073C48.6667 72.1823 48.0625 70.7448 48.0625 69.1198C48.0625 67.4688 48.6667 66.0209 49.7917 64.9167C50.9635 63.7865 52.3646 63.2865 54.2708 63.2865C55.7708 63.2865 56.9531 63.6875 58.026 64.5417V61.4323H57.625C56.974 61.4323 56.724 61.3855 56.474 61.2084C56.151 60.9584 55.974 60.5834 55.974 60.2084C55.974 59.7552 56.1979 59.3542 56.5729 59.1302C56.8021 58.9792 56.974 58.9584 57.625 58.9584H60.5313V72.0782Z" fill="#5F3B28"/>
<path d="M66.5729 66.7917C65.9479 67.4167 65.5989 68.25 65.5989 69.099C65.5989 69.9532 65.9479 70.7969 66.5729 71.4271C67.276 72.125 68.1302 72.4271 69.3281 72.4271C70.5312 72.4271 71.3854 72.125 72.0833 71.4271C72.7135 70.7969 73.0573 69.974 73.0573 69.1511C73.0573 68.25 72.7135 67.4167 72.0833 66.7917C71.3594 66.0886 70.5573 65.7917 69.3021 65.7917C68.1041 65.7917 67.276 66.0886 66.5729 66.7917ZM75.5625 72.0782H75.9635C76.6406 72.0782 76.8646 72.125 77.1198 72.3282C77.4427 72.5521 77.6198 72.9271 77.6198 73.3282C77.6198 73.7552 77.3906 74.1771 77.0208 74.4063C76.8177 74.5313 76.5416 74.5782 75.9635 74.5782H73.0573V73.7084C71.7344 74.6094 70.7812 74.9323 69.2812 74.9323C67.401 74.9323 66 74.4063 64.8229 73.3073C63.6979 72.1823 63.0989 70.7448 63.0989 69.1198C63.0989 67.4688 63.6979 66.0209 64.8229 64.9167C66 63.7865 67.401 63.2865 69.3021 63.2865C70.8073 63.2865 71.9844 63.6875 73.0573 64.5417V61.4323H72.6562C72.0104 61.4323 71.7604 61.3855 71.5104 61.2084C71.1823 60.9584 71.0052 60.5834 71.0052 60.2084C71.0052 59.7552 71.2291 59.3542 71.6094 59.1302C71.8333 58.9792 72.0104 58.9584 72.6562 58.9584H75.5625V72.0782Z" fill="#5F3B28"/>
<path d="M84.2604 65.2657C86.3385 63.7397 87.1927 63.3386 88.4427 63.3386C89.3229 63.3386 90.125 63.6407 90.8958 64.2865C91.4219 64.7188 91.599 65.0157 91.599 65.4636C91.599 66.1667 91.026 66.7449 90.349 66.7449C89.9948 66.7449 89.7448 66.6147 89.3698 66.2917C88.9896 65.9688 88.7448 65.8438 88.3906 65.8438C87.6198 65.8438 86.5938 66.4688 84.2604 68.3959V72.0782H87.7448C88.4427 72.0782 88.6458 72.1251 88.8906 72.3022C89.2448 72.5522 89.4219 72.9272 89.4219 73.3282C89.4219 73.7553 89.1927 74.1563 88.8229 74.4063C88.6458 74.5053 88.2656 74.5782 87.7448 74.5782H80.3021C79.7344 74.5782 79.3802 74.5053 79.1563 74.3334C78.8542 74.1095 78.6562 73.7292 78.6562 73.3282C78.6562 72.9063 78.875 72.4792 79.2552 72.2501C79.4792 72.1042 79.6563 72.0782 80.3021 72.0782H81.7604V66.1459H80.8802C80.2552 66.1459 79.9792 66.0886 79.7344 65.8907C79.401 65.6667 79.2292 65.2865 79.2292 64.8855C79.2292 64.4636 79.4531 64.0626 79.8333 63.8386C79.9792 63.7136 80.4583 63.6407 80.8802 63.6407H84.2604V65.2657Z" fill="#5F3B28"/>
<path d="M103.323 68.0729C102.927 66.6927 101.474 65.8177 99.6458 65.8177C97.8177 65.8177 96.3646 66.7135 95.9687 68.0729H103.323ZM95.8906 70.276C96.4635 71.776 97.7916 72.4792 99.9948 72.4792C101.151 72.4792 101.797 72.3802 104.078 71.776C104.38 71.7031 104.677 71.651 104.901 71.651C105.604 71.651 106.104 72.1823 106.104 72.9063C106.104 73.4063 105.828 73.776 105.229 74.0313C104.099 74.5313 101.573 74.9792 99.7708 74.9792C95.8906 74.9792 93.1614 72.6042 93.1614 69.1719C93.1614 65.8646 95.9687 63.3125 99.6198 63.3125C103.354 63.3125 106.104 65.8437 106.104 69.2969V70.276H95.8906Z" fill="#5F3B28"/>
<path d="M120.036 65.8906C120.036 66.5417 119.99 66.7917 119.812 67.0469C119.557 67.3437 119.187 67.5469 118.786 67.5469C118.182 67.5469 117.932 67.3437 117.484 66.5417C116.781 66.0417 115.979 65.8177 114.901 65.8177C113.599 65.8177 112.427 66.2448 112.427 66.6927C112.427 66.9167 112.672 67.1458 113.073 67.2917C113.427 67.4167 113.578 67.4479 115.177 67.6719C117.083 67.9167 118.062 68.1979 118.807 68.6198C119.911 69.25 120.562 70.2969 120.562 71.4479C120.562 73.5052 118.208 74.9792 114.979 74.9792C113.552 74.9792 112.271 74.7292 111.271 74.2552C110.969 74.4792 110.797 74.5573 110.469 74.5573C109.599 74.5573 109.198 74.0521 109.198 72.9063V72.0781C109.198 71.401 109.245 71.1771 109.443 70.9219C109.698 70.5781 110.047 70.401 110.448 70.401C111.125 70.401 111.526 70.7448 111.75 71.5C112.474 72.151 113.526 72.4792 114.901 72.4792C116.479 72.4792 117.807 72.0052 117.807 71.401C117.807 71.0781 117.484 70.724 116.958 70.526C116.557 70.349 115.979 70.2448 114.656 70.099C111.146 69.724 109.667 68.7187 109.667 66.7448C109.667 64.7396 111.823 63.3125 114.828 63.3125C116.057 63.3125 117.057 63.5156 118.062 63.9635C118.286 63.4635 118.464 63.3125 118.865 63.3125C119.359 63.3125 119.812 63.6406 119.958 64.0625C120.01 64.3177 120.036 64.4635 120.036 64.9635V65.8906Z" fill="#5F3B28"/>
<path d="M135.068 65.8906C135.068 66.5417 135.021 66.7917 134.844 67.0469C134.589 67.3437 134.219 67.5469 133.818 67.5469C133.219 67.5469 132.964 67.3437 132.516 66.5417C131.812 66.0417 131.01 65.8177 129.932 65.8177C128.63 65.8177 127.458 66.2448 127.458 66.6927C127.458 66.9167 127.708 67.1458 128.104 67.2917C128.458 67.4167 128.609 67.4479 130.208 67.6719C132.115 67.9167 133.094 68.1979 133.844 68.6198C134.943 69.25 135.594 70.2969 135.594 71.4479C135.594 73.5052 133.24 74.9792 130.01 74.9792C128.583 74.9792 127.307 74.7292 126.302 74.2552C126 74.4792 125.833 74.5573 125.5 74.5573C124.63 74.5573 124.229 74.0521 124.229 72.9063V72.0781C124.229 71.401 124.276 71.1771 124.474 70.9219C124.729 70.5781 125.078 70.401 125.479 70.401C126.156 70.401 126.557 70.7448 126.781 71.5C127.505 72.151 128.562 72.4792 129.932 72.4792C131.516 72.4792 132.839 72.0052 132.839 71.401C132.839 71.0781 132.516 70.724 131.99 70.526C131.589 70.349 131.01 70.2448 129.687 70.099C126.177 69.724 124.703 68.7187 124.703 66.7448C124.703 64.7396 126.859 63.3125 129.865 63.3125C131.089 63.3125 132.094 63.5156 133.094 63.9635C133.318 63.4635 133.495 63.3125 133.896 63.3125C134.396 63.3125 134.844 63.6406 135 64.0625C135.042 64.3177 135.068 64.4635 135.068 64.9635V65.8906Z" fill="#5F3B28"/>
<path d="M144.719 74.9532C143.818 74.9532 143.062 74.2292 143.062 73.3073C143.062 72.3802 143.818 71.6511 144.719 71.6511H145.167C146.099 71.6511 146.823 72.3802 146.823 73.3073C146.823 74.2292 146.099 74.9532 145.167 74.9532H144.719ZM144.719 66.9688C143.818 66.9688 143.062 66.2136 143.062 65.3177C143.062 64.3855 143.818 63.6615 144.719 63.6615H145.167C146.099 63.6615 146.823 64.3855 146.823 65.3177C146.823 66.2136 146.099 66.9688 145.167 66.9688H144.719Z" fill="#5F3B28"/>
</g>
<defs>
<clipPath id="clip0_114_228">
<rect width="679" height="515" fill="white"/>
</clipPath>
</defs>
</svg>
