<svg width="61" height="61" viewBox="0 0 61 61" fill="none" xmlns="http://www.w3.org/2000/svg">
<mask id="mask0_99_16" style="mask-type:luminance" maskUnits="userSpaceOnUse" x="-1" y="-1" width="63" height="62">
<path d="M-0.00476074 -0.0615845H61.054V60.9972H-0.00476074V-0.0615845Z" fill="white"/>
</mask>
<g mask="url(#mask0_99_16)">
<path d="M-0.00476074 -0.0615845H61.054V60.9972H-0.00476074V-0.0615845Z" fill="#F6EEE1"/>
</g>
<mask id="mask1_99_16" style="mask-type:luminance" maskUnits="userSpaceOnUse" x="8" y="7" width="45" height="50">
<path d="M8.91626 7.94623H52.091V56.5416H8.91626V7.94623Z" fill="white"/>
</mask>
<g mask="url(#mask1_99_16)">
<path d="M12.9814 51.6843L9.08215 7.94623H51.9315L48.0273 51.6773L30.4806 56.5416L12.9814 51.6843Z" fill="#264DE4"/>
</g>
<path d="M44.6857 48.8928L48.0216 11.5222H30.5063V52.8235L44.6857 48.8928Z" fill="#2965F1"/>
<path d="M18.022 27.7442L18.5027 33.1089H30.5064V27.7442H18.022ZM17.5433 22.2515H30.5064V16.8868H17.0555L17.5433 22.2515ZM30.5064 41.6758L30.4833 41.6821L24.5091 40.0691L24.127 35.7905H18.7421L19.4936 44.2133L30.4819 47.2637L30.5064 47.2567V41.6758Z" fill="#EBEBEB"/>
<path d="M30.4882 27.7442V33.1089H37.0936L36.4707 40.0656L30.4882 41.68V47.2609L41.4848 44.2133L41.566 43.307L42.8263 29.1844L42.9572 27.7442L43.9257 16.8868H30.4882V22.2515H38.0467L37.5582 27.7442H30.4882Z" fill="white"/>
</svg>
