<svg width="61" height="61" viewBox="0 0 61 61" fill="none" xmlns="http://www.w3.org/2000/svg">
<g clip-path="url(#clip0_99_27)">
<mask id="mask0_99_27" style="mask-type:luminance" maskUnits="userSpaceOnUse" x="-1" y="-1" width="63" height="62">
<path d="M-0.00476074 -0.0615845H61.054V60.9972H-0.00476074V-0.0615845Z" fill="white"/>
</mask>
<g mask="url(#mask0_99_27)">
<path d="M-0.00476074 -0.0615845H61.054V60.9972H-0.00476074V-0.0615845Z" fill="#F6EEE1"/>
</g>
<mask id="mask1_99_27" style="mask-type:luminance" maskUnits="userSpaceOnUse" x="2" y="2" width="57" height="57">
<path d="M2.28699 2.23022H58.8027V58.7459H2.28699V2.23022Z" fill="white"/>
</mask>
<g mask="url(#mask1_99_27)">
<path d="M57.7361 27.9716L33.0619 3.29675C32.9772 3.21277 32.8891 3.133 32.7967 3.05742C32.705 2.98114 32.6091 2.91046 32.5105 2.84398C32.4111 2.7782 32.3089 2.71662 32.204 2.66063C32.099 2.60465 31.9912 2.55356 31.8814 2.50808C31.7708 2.46259 31.6588 2.422 31.5447 2.38771C31.4307 2.35272 31.3152 2.32403 31.1983 2.30094C31.0815 2.27714 30.9639 2.26035 30.845 2.24845C30.7267 2.23656 30.6077 2.23096 30.4881 2.23096C30.3691 2.23096 30.2501 2.23656 30.1319 2.24845C30.0129 2.26035 29.8953 2.27714 29.7785 2.30094C29.6616 2.32403 29.5461 2.35272 29.4321 2.38771C29.318 2.422 29.206 2.46259 29.0955 2.50808C28.9856 2.55356 28.8778 2.60465 28.7728 2.66063C28.6679 2.71662 28.5657 2.7782 28.4663 2.84398C28.3677 2.91046 28.2718 2.98114 28.1794 3.05742C28.0877 3.133 27.9996 3.21277 27.9149 3.29675L22.7931 8.41857L29.2928 14.9183C30.8044 14.3885 32.535 14.7503 33.74 15.9547C33.8821 16.0975 34.0143 16.25 34.1361 16.411C34.2572 16.5726 34.3663 16.7413 34.4643 16.9183C34.5623 17.0947 34.647 17.2773 34.719 17.4663C34.7911 17.6545 34.8499 17.8477 34.8947 18.0443C34.9402 18.2409 34.971 18.4404 34.9885 18.6412C35.006 18.8428 35.0087 19.0436 34.9983 19.2451C34.9871 19.4467 34.9626 19.6468 34.9234 19.8449C34.8842 20.0429 34.8317 20.2375 34.7659 20.4285L41.0305 26.6931C42.5456 26.1704 44.2944 26.5077 45.5036 27.7204C45.6044 27.8212 45.6996 27.9261 45.7898 28.0353C45.8794 28.1452 45.9641 28.2592 46.0432 28.3768C46.1215 28.4951 46.195 28.6168 46.2615 28.7414C46.3287 28.8667 46.3896 28.9947 46.4435 29.1263C46.498 29.2572 46.5456 29.3908 46.5869 29.5266C46.6282 29.6623 46.6625 29.7995 46.6905 29.9388C46.7178 30.078 46.7388 30.218 46.7528 30.3593C46.7668 30.5007 46.7738 30.6421 46.7738 30.7841C46.7738 30.9262 46.7668 31.0675 46.7528 31.2089C46.7388 31.3503 46.7185 31.4902 46.6905 31.6295C46.6625 31.7687 46.6282 31.9059 46.5869 32.0417C46.5456 32.1774 46.498 32.3111 46.4442 32.4426C46.3896 32.5735 46.3287 32.7016 46.2622 32.8268C46.195 32.9521 46.1222 33.0732 46.0432 33.1914C45.9648 33.3097 45.8801 33.4231 45.7898 33.5329C45.7003 33.6428 45.6051 33.7478 45.5043 33.8478C45.4043 33.9486 45.2993 34.0438 45.1894 34.1334C45.0795 34.2236 44.9662 34.3076 44.8479 34.3867C44.7296 34.4658 44.6079 34.5385 44.4833 34.605C44.3581 34.6722 44.23 34.7324 44.0984 34.787C43.9676 34.8408 43.8339 34.8891 43.6981 34.9297C43.5624 34.971 43.4252 35.0053 43.286 35.0333C43.1467 35.0606 43.006 35.0816 42.8654 35.0956C42.724 35.1096 42.582 35.1166 42.4406 35.1159C42.2985 35.1159 42.1572 35.1089 42.0158 35.0949C41.8745 35.0809 41.7345 35.0606 41.5952 35.0326C41.456 35.0046 41.3181 34.9703 41.1824 34.929C41.0466 34.8877 40.9136 34.8401 40.7821 34.7856C40.6512 34.731 40.5232 34.6708 40.3979 34.6036C40.2733 34.5364 40.1516 34.4637 40.0333 34.3846C39.9157 34.3062 39.8017 34.2215 39.6918 34.1313C39.5826 34.041 39.4777 33.9458 39.3769 33.8457C38.1054 32.5742 37.7911 30.7015 38.4343 29.1354L32.5916 23.2928V38.6673C33.0185 38.878 33.4013 39.1516 33.74 39.4868C33.8401 39.5869 33.9353 39.6918 34.0255 39.8017C34.1151 39.9109 34.1998 40.025 34.2782 40.1425C34.3572 40.2608 34.43 40.3826 34.4972 40.5071C34.5637 40.6324 34.6246 40.7604 34.6784 40.8913C34.733 41.0229 34.7806 41.1558 34.8219 41.2916C34.8632 41.4273 34.8975 41.5652 34.9248 41.7038C34.9528 41.843 34.9738 41.983 34.9878 42.1243C35.0011 42.2657 35.008 42.4071 35.008 42.5491C35.008 42.6905 35.0011 42.8325 34.9878 42.9732C34.9738 43.1146 34.9528 43.2545 34.9248 43.3938C34.8975 43.533 34.8632 43.6702 34.8219 43.806C34.7806 43.9417 34.733 44.0754 34.6784 44.2062C34.6246 44.3371 34.5637 44.4652 34.4972 44.5904C34.43 44.7157 34.3572 44.8375 34.2782 44.955C34.1998 45.0733 34.1151 45.1867 34.0255 45.2965C33.9353 45.4064 33.8401 45.5114 33.74 45.6114C33.6392 45.7115 33.5343 45.8067 33.4251 45.897C33.3152 45.9865 33.2012 46.0712 33.0836 46.1503C32.9653 46.2287 32.8443 46.3014 32.719 46.3686C32.5937 46.4351 32.4657 46.496 32.3348 46.5506C32.204 46.6045 32.0703 46.652 31.9345 46.6933C31.7988 46.7346 31.6616 46.7689 31.5224 46.7969C31.3831 46.8242 31.2431 46.8452 31.1018 46.8592C30.9604 46.8732 30.8191 46.8802 30.677 46.8802C30.5356 46.8802 30.3943 46.8732 30.2529 46.8592C30.1116 46.8452 29.9716 46.8242 29.8323 46.7969C29.6931 46.7689 29.5559 46.7346 29.4202 46.6933C29.2844 46.652 29.1507 46.6045 29.0199 46.5506C28.889 46.496 28.761 46.4351 28.6357 46.3686C28.5104 46.3014 28.3894 46.2287 28.2711 46.1503C28.1535 46.0712 28.0395 45.9865 27.9296 45.897C27.8204 45.8067 27.7155 45.7115 27.6147 45.6114C27.5146 45.5114 27.4194 45.4064 27.3292 45.2965C27.2389 45.1874 27.1542 45.0733 27.0758 44.9557C26.9968 44.8375 26.924 44.7157 26.8568 44.5911C26.7896 44.4659 26.7294 44.3378 26.6749 44.2069C26.6203 44.0754 26.5727 43.9424 26.5314 43.8067C26.4901 43.6709 26.4558 43.533 26.4278 43.3938C26.4005 43.2552 26.3795 43.1146 26.3655 42.9739C26.3515 42.8325 26.3445 42.6912 26.3445 42.5491C26.3445 42.4071 26.3515 42.2657 26.3655 42.1243C26.3795 41.983 26.4005 41.843 26.4278 41.7038C26.4558 41.5645 26.4901 41.4273 26.5314 41.2916C26.5727 41.1558 26.6203 41.0222 26.6749 40.8913C26.7294 40.7604 26.7896 40.6324 26.8568 40.5071C26.924 40.3819 26.9968 40.2608 27.0758 40.1425C27.1542 40.025 27.2389 39.9109 27.3292 39.801C27.4194 39.6918 27.5146 39.5869 27.6147 39.4868C28.0332 39.0697 28.4978 38.7534 29.0332 38.5414V23.0248C28.5174 22.8127 28.0332 22.4999 27.6147 22.08C27.4635 21.9289 27.3243 21.7672 27.1969 21.5958C27.0695 21.4243 26.9562 21.2438 26.8554 21.0555C26.7546 20.8666 26.6686 20.672 26.5965 20.4705C26.5251 20.2697 26.4684 20.0639 26.4271 19.854C26.3858 19.6447 26.3606 19.4334 26.3501 19.2193C26.3404 19.0058 26.3459 18.7931 26.3676 18.5803C26.3893 18.3676 26.4264 18.1584 26.4796 17.9512C26.5321 17.7441 26.6 17.5418 26.6826 17.3445L20.2717 10.9371L3.35198 27.8387C3.26731 27.9233 3.18753 28.0115 3.11195 28.1039C3.03637 28.1956 2.96499 28.2914 2.89921 28.3908C2.83273 28.4895 2.77115 28.5917 2.71517 28.6966C2.65848 28.8023 2.6081 28.9094 2.56191 29.0199C2.51642 29.1298 2.47653 29.2425 2.44154 29.3565C2.40725 29.4706 2.37786 29.5861 2.35477 29.7029C2.33168 29.8198 2.31418 29.9374 2.30228 30.0563C2.29039 30.1746 2.28479 30.2936 2.28479 30.4132C2.28479 30.5322 2.29039 30.6512 2.30228 30.7701C2.31418 30.8884 2.33168 31.0067 2.35477 31.1235C2.37786 31.2404 2.40725 31.3559 2.44154 31.4699C2.47653 31.584 2.51642 31.696 2.56191 31.8065C2.6081 31.9164 2.65848 32.0242 2.71517 32.1291C2.77115 32.2348 2.83273 32.3363 2.89921 32.4356C2.96499 32.535 3.03637 32.6302 3.11195 32.7226C3.18753 32.8149 3.26731 32.9031 3.35198 32.9871L28.0283 57.6599C28.1122 57.7438 28.2004 57.8243 28.2928 57.8999C28.3852 57.9755 28.4803 58.0462 28.5797 58.1126C28.6784 58.1791 28.7805 58.24 28.8855 58.296C28.9912 58.3527 29.0983 58.4031 29.2088 58.4492C29.3187 58.4947 29.4307 58.5346 29.5447 58.5696C29.6588 58.6039 29.7743 58.6326 29.8911 58.6564C30.008 58.6795 30.1263 58.697 30.2445 58.7089C30.3635 58.7201 30.4825 58.7264 30.6014 58.7264C30.7204 58.7264 30.8394 58.7201 30.9583 58.7089C31.0766 58.697 31.1941 58.6795 31.3117 58.6564C31.4286 58.6326 31.544 58.6039 31.6581 58.5696C31.7722 58.5346 31.8842 58.4947 31.994 58.4492C32.1039 58.4031 32.2117 58.3527 32.3166 58.296C32.4223 58.24 32.5245 58.1791 32.6231 58.1126C32.7225 58.0462 32.8177 57.9755 32.9101 57.8999C33.0024 57.8243 33.0906 57.7438 33.1746 57.6599L57.7361 33.1375C57.8201 33.0529 57.9005 32.9647 57.9761 32.873C58.0517 32.7806 58.1231 32.6848 58.1889 32.5861C58.2553 32.4867 58.3169 32.3846 58.3729 32.2796C58.4289 32.1746 58.48 32.0668 58.5255 31.9563C58.5717 31.8464 58.6115 31.7344 58.6465 31.6204C58.6808 31.5063 58.7095 31.3901 58.7333 31.2733C58.7564 31.1564 58.7739 31.0388 58.7858 30.9199C58.797 30.8016 58.8033 30.6826 58.8033 30.563C58.8033 30.444 58.797 30.3251 58.7858 30.2061C58.7739 30.0878 58.7564 29.9696 58.7333 29.8527C58.7095 29.7358 58.6808 29.6204 58.6465 29.5063C58.6115 29.3922 58.5717 29.2803 58.5255 29.1697C58.48 29.0598 58.4289 28.952 58.3729 28.8471C58.3169 28.7421 58.2553 28.6399 58.1889 28.5406C58.1231 28.4412 58.0517 28.346 57.9761 28.2536C57.9005 28.1613 57.8201 28.0731 57.7361 27.9891" fill="#F03C2E"/>
</g>
</g>
<defs>
<clipPath id="clip0_99_27">
<rect width="61" height="61" fill="white"/>
</clipPath>
</defs>
</svg>
