<svg width="28" height="28" viewBox="0 0 28 28" fill="none" xmlns="http://www.w3.org/2000/svg">
<g filter="url(#filter0_d_117_232)">
<path d="M14 0C19.523 0 24 4.477 24 10C24 15.523 19.523 20 14 20C12.2328 20.003 10.4966 19.5353 8.97002 18.645L4.00402 20L5.35602 15.032C4.46497 13.5049 3.99692 11.768 4.00002 10C4.00002 4.477 8.47702 0 14 0ZM10.592 5.3L10.392 5.308C10.2627 5.31691 10.1364 5.35087 10.02 5.408C9.91159 5.46951 9.81258 5.5463 9.72602 5.636C9.60602 5.749 9.53802 5.847 9.46502 5.942C9.09514 6.4229 8.89599 7.01331 8.89902 7.62C8.90102 8.11 9.02902 8.587 9.22902 9.033C9.63802 9.935 10.311 10.89 11.199 11.775C11.413 11.988 11.623 12.202 11.849 12.401C12.9524 13.3724 14.2673 14.073 15.689 14.447L16.257 14.534C16.442 14.544 16.627 14.53 16.813 14.521C17.1042 14.5056 17.3885 14.4268 17.646 14.29C17.7769 14.2223 17.9047 14.1489 18.029 14.07C18.029 14.07 18.0713 14.0413 18.154 13.98C18.289 13.88 18.372 13.809 18.484 13.692C18.568 13.6053 18.638 13.5047 18.694 13.39C18.772 13.227 18.85 12.916 18.882 12.657C18.906 12.459 18.899 12.351 18.896 12.284C18.892 12.177 18.803 12.066 18.706 12.019L18.124 11.758C18.124 11.758 17.254 11.379 16.722 11.137C16.6663 11.1128 16.6067 11.0989 16.546 11.096C16.4776 11.0888 16.4084 11.0965 16.3432 11.1184C16.278 11.1403 16.2182 11.176 16.168 11.223C16.163 11.221 16.096 11.278 15.373 12.154C15.3315 12.2098 15.2744 12.2519 15.2088 12.2751C15.1433 12.2982 15.0723 12.3013 15.005 12.284C14.9398 12.2666 14.876 12.2446 14.814 12.218C14.69 12.166 14.647 12.146 14.562 12.11C13.9879 11.8599 13.4565 11.5215 12.987 11.107C12.861 10.997 12.744 10.877 12.624 10.761C12.2306 10.3842 11.8878 9.95799 11.604 9.493L11.545 9.398C11.5033 9.3338 11.4691 9.26501 11.443 9.193C11.405 9.046 11.504 8.928 11.504 8.928C11.504 8.928 11.747 8.662 11.86 8.518C11.97 8.378 12.063 8.242 12.123 8.145C12.241 7.955 12.278 7.76 12.216 7.609C11.936 6.925 11.6467 6.24467 11.348 5.568C11.289 5.434 11.114 5.338 10.955 5.319C10.901 5.31233 10.847 5.307 10.793 5.303C10.6587 5.2953 10.5241 5.29663 10.39 5.307L10.592 5.3Z" fill="black"/>
</g>
<defs>
<filter id="filter0_d_117_232" x="0" y="0" width="28" height="28" filterUnits="userSpaceOnUse" color-interpolation-filters="sRGB">
<feFlood flood-opacity="0" result="BackgroundImageFix"/>
<feColorMatrix in="SourceAlpha" type="matrix" values="0 0 0 0 0 0 0 0 0 0 0 0 0 0 0 0 0 0 127 0" result="hardAlpha"/>
<feOffset dy="4"/>
<feGaussianBlur stdDeviation="2"/>
<feComposite in2="hardAlpha" operator="out"/>
<feColorMatrix type="matrix" values="0 0 0 0 0 0 0 0 0 0 0 0 0 0 0 0 0 0 0.25 0"/>
<feBlend mode="normal" in2="BackgroundImageFix" result="effect1_dropShadow_117_232"/>
<feBlend mode="normal" in="SourceGraphic" in2="effect1_dropShadow_117_232" result="shape"/>
</filter>
</defs>
</svg>
